<?xml version="1.0" encoding="UTF-8"?>
<!DOCTYPE svg PUBLIC "-//W3C//DTD SVG 1.1//EN" "http://www.w3.org/Graphics/SVG/1.1/DTD/svg11.dtd">
<!-- Creator: CorelDRAW X8 -->
<svg xmlns="http://www.w3.org/2000/svg" xml:space="preserve" width="206.089mm" height="254mm" version="1.1" style="shape-rendering:geometricPrecision; text-rendering:geometricPrecision; image-rendering:optimizeQuality; fill-rule:evenodd; clip-rule:evenodd"
viewBox="0 0 20609 25400"
 xmlns:xlink="http://www.w3.org/1999/xlink">
 <defs>
  <style type="text/css">
   <![CDATA[
    .fil0 {fill:black}
   ]]>
  </style>
 </defs>
 <g id="Layer_x0020_1">
  <metadata id="CorelCorpID_0Corel-Layer"/>
  <path class="fil0" d="M8195 7612l215 -828c-1234,390 -2322,1170 -3121,2187 -822,1048 -1327,2333 -1348,3671 -9,547 68,1093 216,1620 295,1047 -319,2138 -1366,2432 -1048,294 -2138,-320 -2433,-1366 -251,-893 -371,-1821 -357,-2748 35,-2201 828,-4322 2184,-6049 1353,-1722 3225,-3002 5335,-3599 645,-183 1307,-298 1975,-346l448 -1732c131,-471 432,-901 976,-850 201,19 431,119 590,247l8 7 7 7c1001,919 2003,1837 3007,2754 635,580 1271,1159 1910,1735 231,208 462,416 695,622 121,107 245,221 371,321 299,236 471,582 310,954 -104,240 -358,461 -614,520 -439,100 -885,189 -1326,282 -895,188 -1790,376 -2685,563 -802,167 -1604,333 -2407,497 -495,100 -996,207 -1494,293 -484,83 -982,-33 -1117,-567 -48,-190 -36,-436 21,-627zm4219 10176l-214 828c1233,-390 2321,-1170 3120,-2187 822,-1048 1327,-2333 1348,-3671 9,-547 -68,-1093 -216,-1620 -295,-1047 319,-2139 1366,-2432 1048,-294 2138,319 2433,1366 251,893 371,1821 357,2748 -35,2201 -828,4322 -2184,6049 -1353,1721 -3225,3002 -5335,3599 -645,183 -1307,298 -1975,346l-448 1732c-131,471 -432,901 -976,850 -201,-20 -431,-119 -590,-247l-8 -7 -7 -7c-1001,-919 -2003,-1837 -3007,-2754 -635,-580 -1271,-1159 -1910,-1735 -231,-209 -462,-416 -695,-622 -121,-107 -245,-221 -371,-321 -299,-236 -471,-582 -310,-954 104,-240 358,-461 614,-520 439,-100 885,-189 1326,-282 895,-189 1790,-376 2685,-563 802,-167 1604,-333 2407,-497 495,-100 996,-207 1494,-293 484,-83 982,33 1117,567 48,190 36,436 -21,627z"/>
 </g>
</svg>
