<?xml version="1.0" encoding="UTF-8"?>
<!DOCTYPE svg PUBLIC "-//W3C//DTD SVG 1.1//EN" "http://www.w3.org/Graphics/SVG/1.1/DTD/svg11.dtd">
<!-- Creator: CorelDRAW X8 -->
<svg xmlns="http://www.w3.org/2000/svg" xml:space="preserve" width="254mm" height="184.769mm" version="1.1" style="shape-rendering:geometricPrecision; text-rendering:geometricPrecision; image-rendering:optimizeQuality; fill-rule:evenodd; clip-rule:evenodd"
viewBox="0 0 25400 18477"
 xmlns:xlink="http://www.w3.org/1999/xlink">
 <defs>
  <style type="text/css">
   <![CDATA[
    .fil0 {fill:black}
   ]]>
  </style>
 </defs>
 <g id="Layer_x0020_1">
  <metadata id="CorelCorpID_0Corel-Layer"/>
  <path class="fil0" d="M24760 18477l-24120 0c-352,0 -640,-288 -640,-641l0 -17196c0,-352 288,-640 640,-640l24120 0c352,0 640,288 640,640l0 17196c0,353 -288,641 -640,641zm-20569 -3502l4917 0 0 -1639 -3114 0 0 -3524 2474 0 0 -1639 -2474 0 0 -3032 3114 0 0 -1639 -4917 0 0 11473zm5949 0l2836 0c1803,0 2737,-951 2737,-2721l0 -983c0,-1213 -377,-2065 -1344,-2393l0 -33c803,-328 1163,-1065 1163,-2245l0 -459c0,-1770 -803,-2639 -2671,-2639l-2721 0 0 11473zm1803 -6802l0 -3032 869 0c639,0 918,361 918,1180l0 639c0,918 -410,1213 -1082,1213l-705 0zm0 5163l0 -3524 803 0c820,0 1164,328 1164,1393l0 1000c0,852 -328,1131 -934,1131l-1033 0zm7162 1803c1771,0 2721,-1049 2721,-2918 0,-1425 -475,-2343 -1983,-3671 -1180,-1032 -1557,-1639 -1557,-2475 0,-787 328,-1098 901,-1098 574,0 902,311 902,1131l0 590 1704 0 0 -475c0,-1836 -868,-2885 -2622,-2885 -1754,0 -2688,1049 -2688,2852 0,1311 492,2245 2000,3573 1180,1033 1540,1639 1540,2590 0,852 -360,1147 -934,1147 -574,0 -934,-295 -934,-1115l0 -786 -1705 0 0 655c0,1836 885,2885 2655,2885z"/>
 </g>
</svg>
